<?xml version="1.0" standalone="no"?>
<!DOCTYPE svg PUBLIC "-//W3C//DTD SVG 20010904//EN"
 "http://www.w3.org/TR/2001/REC-SVG-20010904/DTD/svg10.dtd">
<svg version="1.0" xmlns="http://www.w3.org/2000/svg"
 width="303.000000pt" height="166.000000pt" viewBox="0 0 303.000000 166.000000"
 preserveAspectRatio="xMidYMid meet">

<g transform="translate(0.000000,166.000000) scale(0.100000,-0.100000)"
fill="#000000" stroke="none">
<path d="M1075 1420 c-3 -5 -12 -7 -19 -4 -8 3 -17 0 -22 -7 -4 -7 -2 -15 4
-17 7 -2 12 -8 12 -14 0 -6 -8 -3 -19 6 -18 16 -21 15 -67 -15 -27 -18 -53
-37 -59 -44 -15 -17 -154 -82 -226 -106 -35 -11 -99 -23 -142 -26 -43 -3 -74
-9 -70 -13 12 -11 143 6 225 30 98 29 208 84 262 131 24 22 48 39 53 39 12 0
89 -81 96 -102 4 -10 3 -17 -1 -16 -25 8 -207 -136 -347 -274 l-91 -88 -115
47 -115 47 -1 38 c-1 41 -17 68 -39 68 -19 0 -18 -45 4 -104 19 -53 27 -60
140 -118 l62 -33 -22 -18 c-32 -25 -64 -38 -127 -51 -64 -13 -66 -17 -76 -155
-8 -102 8 -153 53 -170 22 -8 23 -10 7 -10 -17 -1 -17 -3 -5 -11 13 -8 13 -10
1 -10 -10 0 -12 -3 -5 -10 5 -5 34 -11 64 -13 30 -3 42 -2 25 0 -56 8 -44 18
21 18 45 -1 68 -5 74 -15 9 -14 149 -28 299 -29 l73 -1 -2 83 c-4 129 0 221 9
235 6 11 15 9 42 -7 19 -10 79 -34 134 -51 55 -18 120 -41 145 -51 60 -26 146
-41 187 -33 56 10 90 64 83 129 -3 35 -88 155 -110 155 -4 0 -10 -25 -12 -56
-7 -82 -49 -107 -143 -86 -172 40 -290 85 -292 112 -1 11 2 18 6 16 4 -3 17
17 30 44 23 49 109 157 136 173 11 6 15 2 15 -16 0 -45 22 -87 53 -103 24 -13
48 -15 123 -9 81 6 98 4 139 -14 26 -11 60 -32 76 -46 17 -13 51 -31 77 -39
26 -8 63 -21 82 -29 47 -19 124 -31 115 -17 -3 6 -10 8 -15 5 -5 -3 -15 1 -23
9 -8 8 -17 12 -21 9 -3 -4 -6 0 -6 8 0 8 5 20 11 26 8 8 5 17 -10 32 -12 12
-22 21 -24 21 -9 0 -4 -46 6 -59 10 -12 9 -14 -5 -8 -9 3 -19 1 -22 -6 -2 -7
-5 -2 -5 11 -1 23 -5 26 -56 36 l-30 6 28 -15 c35 -20 34 -26 -2 -15 -16 4
-32 6 -35 2 -3 -3 -6 -1 -6 5 0 15 36 44 44 36 4 -4 4 0 0 10 -3 9 -10 17 -16
17 -5 0 -7 4 -4 9 3 5 -1 11 -8 14 -8 3 -17 1 -20 -6 -2 -7 -5 -4 -5 6 -1 18
-31 24 -31 6 0 -8 -5 -8 -15 1 -16 13 -21 35 -7 26 5 -3 9 1 9 9 0 8 -9 15
-21 15 -13 0 -17 3 -10 10 6 6 21 6 42 1 39 -12 42 -1 5 16 -17 8 -30 9 -38 3
-7 -5 -15 -7 -19 -3 -9 10 -106 11 -100 1 3 -4 -14 -8 -38 -8 l-43 0 25 24
c14 13 29 23 34 22 5 0 16 12 24 27 13 28 14 28 39 12 14 -10 22 -12 19 -6
-18 29 -43 30 -80 5 l-37 -25 2 40 c4 61 -7 60 -38 -3 -15 -31 -31 -56 -36
-56 -6 0 -6 22 -2 53 9 60 10 76 4 96 -2 9 6 17 21 21 21 6 23 8 8 15 -10 4
-25 4 -34 1 -8 -3 -13 -2 -10 2 2 4 1 14 -5 22 -5 9 -9 10 -9 4 0 -7 -7 -15
-16 -18 -12 -4 -14 -1 -9 14 4 13 1 22 -9 26 -9 3 -13 10 -10 15 3 5 13 5 24
-1 29 -16 38 -11 10 5 -14 8 -33 12 -42 9 -10 -3 -18 -1 -18 5 0 6 5 11 12 11
9 0 9 3 0 12 -17 17 -15 31 3 24 22 -8 18 8 -9 33 -13 12 -36 23 -52 24 -16 1
-35 8 -42 15 -16 14 -68 16 -77 2z m35 -41 c-9 -15 -15 -18 -24 -10 -7 6 -16
8 -19 4 -4 -3 -7 -2 -7 4 0 15 6 18 35 21 23 2 24 0 15 -19z m115 -39 c-3 -5
-1 -10 5 -10 6 0 8 -5 4 -11 -5 -8 -9 -8 -14 1 -5 8 -10 9 -14 2 -4 -6 -13 -9
-21 -5 -11 4 -13 1 -9 -11 5 -12 2 -15 -11 -9 -11 4 -23 0 -30 -11 -7 -9 -16
-13 -19 -8 -8 14 35 49 74 60 19 6 36 11 38 11 2 1 0 -3 -3 -9z m27 -114 c17
5 18 4 6 -15 -8 -13 -16 -17 -22 -11 -15 15 -29 12 -22 -6 3 -8 2 -12 -4 -9
-14 9 -12 35 3 36 6 0 -2 7 -20 15 -21 9 -31 19 -27 28 4 11 13 8 36 -15 21
-20 37 -27 50 -23z m3 -66 c3 -5 2 -10 -4 -10 -5 0 -13 5 -16 10 -3 6 -2 10 4
10 5 0 13 -4 16 -10z m-835 -100 c0 -5 -2 -10 -4 -10 -3 0 -8 5 -11 10 -3 6
-1 10 4 10 6 0 11 -4 11 -10z m1086 -85 c-8 -8 -22 -12 -30 -9 -23 9 -9 24 20
24 23 0 24 -2 10 -15z m144 -126 c0 -6 -4 -7 -10 -4 -5 3 -10 11 -10 16 0 6 5
7 10 4 6 -3 10 -11 10 -16z m-985 -449 c-3 -5 -10 -10 -16 -10 -5 0 -9 5 -9
10 0 6 7 10 16 10 8 0 12 -4 9 -10z"/>
<path d="M1710 906 c0 -2 15 -9 33 -15 29 -10 30 -9 13 4 -18 14 -46 20 -46
11z"/>
<path d="M1915 774 c-14 -15 -15 -19 -2 -32 18 -17 37 -8 37 18 0 27 -16 33
-35 14z"/>
<path d="M1845 724 c20 -20 25 -32 20 -52 -8 -34 -38 -57 -45 -36 -4 10 -12 1
-23 -25 -19 -41 -76 -105 -179 -198 -32 -28 -58 -56 -58 -62 0 -23 581 -9 805
19 159 21 293 43 305 50 10 6 8 15 -6 39 -16 27 -24 31 -61 31 -24 0 -43 4
-43 8 0 5 14 6 31 4 22 -3 30 -1 25 7 -4 6 -12 8 -18 5 -6 -4 -14 -1 -18 7 -6
9 -12 10 -22 1 -9 -7 -73 -12 -171 -14 -163 -3 -220 8 -74 15 75 4 73 4 -15 3
-91 -2 -101 -4 -168 -39 -39 -20 -77 -37 -85 -37 -8 0 -22 11 -30 24 -13 20
-14 29 -5 47 9 15 9 20 1 14 -8 -5 -10 1 -5 21 5 20 4 25 -5 20 -7 -5 -28 -5
-47 -2 -31 6 -34 10 -34 42 0 21 4 33 10 29 6 -3 10 -2 10 3 0 6 21 5 53 -3
71 -19 101 -21 105 -10 2 6 -23 17 -56 25 -72 18 -98 36 -81 57 7 7 9 16 5 20
-3 3 -6 1 -6 -5 0 -7 -12 -12 -26 -12 -16 0 -23 -4 -18 -12 5 -7 3 -8 -5 -4
-7 5 -10 11 -7 14 6 5 -58 31 -77 32 -4 0 4 -12 18 -26z m548 -231 c-7 -2 -19
-2 -25 0 -7 3 -2 5 12 5 14 0 19 -2 13 -5z"/>
<path d="M2042 727 c10 -8 15 -17 11 -21 -8 -8 15 -26 35 -26 6 0 12 6 12 14
0 17 -18 32 -50 40 -23 6 -23 6 -8 -7z"/>
<path d="M1984 715 c-10 -8 -14 -15 -8 -15 6 0 17 7 24 15 16 19 9 19 -16 0z"/>
<path d="M2585 314 c-38 -8 -123 -21 -189 -29 -86 -11 -134 -22 -175 -42 -54
-25 -62 -27 -201 -25 -393 6 -502 3 -523 -11 -26 -17 -442 -31 -470 -16 -9 5
-116 12 -239 14 -227 5 -378 18 -423 35 -22 8 -25 7 -25 -13 0 -12 8 -32 18
-45 15 -20 31 -24 112 -32 124 -11 1853 -25 1948 -15 39 4 72 10 72 14 0 4 -8
8 -17 8 -10 -1 -70 1 -133 2 l-115 3 90 14 c208 32 355 72 355 97 0 5 -7 4
-15 -3 -9 -7 -18 -11 -20 -8 -3 3 7 11 23 19 46 24 57 50 20 48 -13 -1 -54 -8
-93 -15z"/>
</g>
</svg>
